<svg id="Logo" xmlns="http://www.w3.org/2000/svg" viewBox="0 0 782.75 182.38"><defs><style>.cls-1,.cls-3{fill:#f4f4f4;}.cls-2{fill:#2c1f33;stroke:#2c1f33;}.cls-2,.cls-3{stroke-miterlimit:10;}.cls-3{stroke:#f4f4f4;}</style></defs><path class="cls-1" d="M544.61,185.77h-14.4a4.62,4.62,0,1,1,0-9.23h14.4c1.48,0,2.73-1.61,2.73-3.51,0-1.59-1-2.93-2.22-2.93H472.6c-6.4,0-11.61-5.54-11.61-12.35s5.3-12.57,11.81-12.57h62.47c1.24,0,2.3-1.39,2.3-3s-1.14-3.24-2.49-3.24H481.64c-6.43,0-11.66-5.57-11.66-12.41S475.25,114,481.72,114h44.83c1.36,0,2.51-1.49,2.51-3.26s-1.12-3.18-2.43-3.18h-35c-6.47,0-11.73-5.6-11.73-12.48s5.24-12.44,11.69-12.44h29a4.62,4.62,0,1,1,0,9.24h-29c-1.33,0-2.45,1.47-2.45,3.2s1.14,3.24,2.49,3.24h35c6.43,0,11.67,5.57,11.67,12.42s-5.27,12.5-11.75,12.5H481.72c-1.36,0-2.51,1.5-2.51,3.27s1.12,3.17,2.43,3.17h53.44c6.46,0,11.72,5.6,11.72,12.48s-5.17,12.27-11.53,12.27H472.8c-1.39,0-2.57,1.52-2.57,3.33s1.09,3.11,2.37,3.11h72.52c6.31,0,11.45,5.46,11.45,12.17C556.57,180.06,551.2,185.77,544.61,185.77Z" transform="translate(-105.64 -81.63)"/><path class="cls-2" d="M268.9,263.51c-2.85,0-4.65-2-4.65-3.8V179c0-1.79,1.8-3.8,4.65-3.8s4.64,2,4.64,3.8v80.76C273.54,261.5,271.64,263.51,268.9,263.51Z" transform="translate(-105.64 -81.63)"/><path class="cls-2" d="M329.07,262.35h-6.55C297.29,262.35,287,251,287,227.2V211.47c0-24.49,11.19-35.16,35.57-35.16H339c1.69,0,3.7,1.8,3.7,4.65s-2,4.64-3.7,4.64H322.52c-18.36,0-26.28,7.92-26.28,25.87V227.2c0,18.68,8.76,26.07,26.28,26.07h6.55c18.05,0,22.91-7.6,23.65-20.27.1-1.9,1.58-3.8,4.75-3.8,2.74,0,4.54,1.9,4.54,3.7v.1C362,248.94,356,262.35,329.07,262.35Z" transform="translate(-105.64 -81.63)"/><path class="cls-2" d="M437.59,262.35H381.22a7.39,7.39,0,0,1-7.5-7.5V184a7.51,7.51,0,0,1,7.5-7.71H424.6a4.35,4.35,0,0,1,3.91,4.54c0,2.85-2,4.54-3.91,4.54H385.44a2.41,2.41,0,0,0-2.53,2.43v25.34H420.7c1.79,0,3.69,1.68,3.69,4.54s-1.9,4.53-3.69,4.53H382.91V251a2.43,2.43,0,0,0,2.53,2.53h52.15c1.69,0,3.69,1.69,3.69,4.54A4.12,4.12,0,0,1,437.59,262.35Z" transform="translate(-105.64 -81.63)"/><path class="cls-3" d="M517.33,261.75h-20c-25.23,0-35.58-11.4-35.58-35.15V210.87c0-24.49,11.19-33.82,35.58-33.82h33c1.69,0,3.69.46,3.69,3.31s-2,4.91-3.69,4.91h-33c-18.37,0-26.29,7.65-26.29,25.6V226.6c0,18.68,8.76,26.07,26.29,26.07h20c18,0,24.9-7.6,25.64-20.27.11-1.9,1.59-3.8,4.75-3.8,2.75,0,4.54,1.9,4.54,3.7v.1C552.26,248.34,544.24,261.75,517.33,261.75Z" transform="translate(-105.64 -81.63)"/><path class="cls-2" d="M608.67,225.51H598.22c-.52,0-.74.1-.74.31s.22.53.64.85l34.62,29.56a4.38,4.38,0,0,1,1.69,3.37c0,2-1.69,3.91-4.64,3.91a5.58,5.58,0,0,1-3.91-1.69l-39-34.52c-1.37-1.27-3-3-3-5.49,0-3.17,2-4.85,5.07-4.85h17.1c13.72,0,20.06-3.7,20.06-12.88v-3.59c0-12.25-6.76-15.1-17.42-15.1H575.21a2.31,2.31,0,0,0-2.32,2.43v71.89c0,1.9-1.8,3.8-4.75,3.8-2.75,0-4.44-1.9-4.44-3.8v-75.9c0-5.17,2.64-7.5,7.71-7.5h37.37c18.26,0,26.6,6.44,26.6,24v4.64C635.38,220,624.83,225.51,608.67,225.51Z" transform="translate(-105.64 -81.63)"/><path class="cls-2" d="M712,262.35H655.65a7.39,7.39,0,0,1-7.49-7.5V184a7.51,7.51,0,0,1,7.49-7.71H699a4.35,4.35,0,0,1,3.91,4.54c0,2.85-2,4.54-3.91,4.54H659.88a2.42,2.42,0,0,0-2.54,2.43v25.34h37.79c1.8,0,3.7,1.68,3.7,4.54s-1.9,4.53-3.7,4.53H657.34V251a2.44,2.44,0,0,0,2.54,2.53H712c1.68,0,3.69,1.69,3.69,4.54A4.13,4.13,0,0,1,712,262.35Z" transform="translate(-105.64 -81.63)"/><path class="cls-1" d="M252.88,168.83H196.51a7.39,7.39,0,0,1-7.5-7.5V90.5a7.51,7.51,0,0,1,7.5-7.71h43.38a4.35,4.35,0,0,1,3.91,4.54c0,2.85-2,4.54-3.91,4.54H200.73a2.41,2.41,0,0,0-2.53,2.43v25.34H236c1.79,0,3.69,1.69,3.69,4.54s-1.9,4.54-3.69,4.54H198.2v28.71a2.43,2.43,0,0,0,2.53,2.53h52.15c1.69,0,3.69,1.69,3.69,4.54A4.12,4.12,0,0,1,252.88,168.83Z" transform="translate(-105.64 -81.63)"/><path class="cls-2" d="M796.4,263.51c-2.85,0-4.23-.95-4.75-2.74L784,241.87h-30.4c-1.79,0-3.69-1.58-3.69-4.43,0-2.64,1.9-4.44,3.69-4.44h26.82l-19-48c-.21-.63-.63-.95-1-.95s-.63.32-.84.95l-30.19,76c-.64,1.69-2,2.53-4.65,2.53-3.16,0-4.64-1.58-4.64-3.59a4.18,4.18,0,0,1,.31-1.48L751,181.06a7.88,7.88,0,0,1,7.29-5.17h4.43A8.15,8.15,0,0,1,770,181l30.72,77.59a2.69,2.69,0,0,1,.32,1.27C801,261.82,799.14,263.51,796.4,263.51Z" transform="translate(-105.64 -81.63)"/><path class="cls-2" d="M883.35,263.51c-2.74,0-4.43-1.9-4.43-3.69V187.93c0-.32-.11-.53-.32-.53s-.31.21-.53.63l-24.7,64.61c-.63,1.79-2.64,3.06-5.49,3.06s-4.75-1.37-5.38-3.17l-24.81-64.71c-.1-.32-.32-.53-.42-.53s-.32.21-.32.64v71.89c0,1.79-1.79,3.69-4.64,3.69a4.05,4.05,0,0,1-4.33-3.69V182.54c0-3.38,2-6.65,6.33-6.65h2.43c4.12,0,6.33,2.53,7.6,5.81l22.8,58.59c.21.52.53.84.85.84s.53-.32.74-.84l22.69-58.06c1.48-3.81,3.7-6.34,7-6.34h3c4.11,0,6.54,2.64,6.54,6.65v77.28C887.89,261.61,886.1,263.51,883.35,263.51Z" transform="translate(-105.64 -81.63)"/><path class="cls-1" d="M148.39,168.83H137.73c-23.86,0-32.09-9.82-32.09-23.86V144c0-1.79,1.79-3.69,4.64-3.69s5,1.69,5,3.48v.95c0,9.19,5.38,15.31,22.8,15.31H148.6c20.59,0,23.65-6.65,23.65-15.1v-2.74c0-9.08-4.33-13.51-30.51-14-24.49-.53-35.36-4.33-35.36-20.38v-2.43c0-14.14,7.6-22.59,30.93-22.59h25.23c1.69,0,3.59,1.9,3.59,4.54s-1.9,4.33-3.59,4.33H137.1c-15.84,0-21.22,4.44-21.22,13.3v2.64c0,9.29,5.17,11.93,31.46,12.35s34.52,7.5,34.52,22v3.38C181.86,158.8,176,168.83,148.39,168.83Z" transform="translate(-105.64 -81.63)"/><path class="cls-1" d="M307.61,137.79H287.87c-1.8,0-3.8-1.79-3.8-4.64s2-4.54,3.8-4.54h18.79c12.88,0,18-4.54,18-14.25v-7.6c0-9.61-5-14.78-17.95-14.78H275.94a2.39,2.39,0,0,0-2.43,2.43v71.78c0,1.8-1.58,3.8-4.54,3.8s-4.64-2-4.64-3.8V90.5c0-4.43,2.85-7.71,7.49-7.71h35.79C327.56,82.79,334,91.56,334,106v9.08C334,128.82,327.35,137.79,307.61,137.79Z" transform="translate(-105.64 -81.63)"/><path class="cls-1" d="M350.78,170c-2.85,0-4.64-2-4.64-3.8V85.43c0-1.79,1.79-3.8,4.64-3.8s4.65,2,4.65,3.8v80.76C355.43,168,353.53,170,350.78,170Z" transform="translate(-105.64 -81.63)"/><path class="cls-1" d="M406.84,168.83H394.17c-1.9,0-3.59-1.8-3.59-4.43,0-2.85,1.69-4.65,3.59-4.65h12c20.17,0,24.92-11.4,24.92-25.76V117.53C431.12,98.42,424.78,92,403,92H382.56A2.44,2.44,0,0,0,380,94.51V166.4a4.16,4.16,0,0,1-4.43,3.8c-2.85,0-4.65-2-4.65-3.8V90.5a7.62,7.62,0,0,1,7.71-7.71h25.12c28,0,36.64,11.41,36.64,34.84v16.15C440.41,152,434.92,168.83,406.84,168.83Z" transform="translate(-105.64 -81.63)"/></svg>